HIERARCHY
ROOT Hips
{
	OFFSET 0.000000 0.000000 0.000000 
	CHANNELS 6 Xposition Yposition Zposition Zrotation Yrotation Xrotation
	JOINT LeftUpLeg
	{
		OFFSET 1.363060 -1.794630 0.839290 
		CHANNELS 3 Zrotation Yrotation Xrotation
		JOINT LeftLeg
		{
			OFFSET 2.448110 -6.726130 0.000000 
			CHANNELS 3 Zrotation Yrotation Xrotation
			JOINT LeftFoot
			{
				OFFSET 2.562200 -7.039590 0.000000 
				CHANNELS 3 Zrotation Yrotation Xrotation
				JOINT LeftToeBase
				{
					OFFSET 0.157640 -0.433110 2.322550 
					CHANNELS 3 Zrotation Yrotation Xrotation
					End Site
					{
						OFFSET 0.000000 0.000000 0.000000 
					}
				}
			}
		}
	}
	JOINT RightUpLeg
	{
		OFFSET -1.305520 -1.794630 0.839290 
		CHANNELS 3 Zrotation Yrotation Xrotation
		JOINT RightLeg
		{
			OFFSET -2.542530 -6.985550 0.000000 
			CHANNELS 3 Zrotation Yrotation Xrotation
			JOINT RightFoot
			{
				OFFSET -2.568260 -7.056230 0.000000 
				CHANNELS 3 Zrotation Yrotation Xrotation
				JOINT RightToeBase
				{
					OFFSET -0.164730 -0.452590 2.363150 
					CHANNELS 3 Zrotation Yrotation Xrotation
					End Site
					{
						OFFSET 0.000000 0.000000 0.000000 
					}
				}
			}
		}
	}
	JOINT Spine
	{
		OFFSET 0.028270 2.035590 -0.193380 
		CHANNELS 3 Zrotation Yrotation Xrotation
		JOINT Spine1
		{
			OFFSET 0.056720 2.048850 -0.042750 
			CHANNELS 3 Zrotation Yrotation Xrotation
			JOINT Neck1
			{
				OFFSET -0.054170 1.746240 0.172020 
				CHANNELS 3 Zrotation Yrotation Xrotation
				JOINT Head
				{
					OFFSET 0.104070 1.761360 -0.123970 
					CHANNELS 3 Zrotation Yrotation Xrotation
					End Site
					{
						OFFSET 0.000000 0.000000 0.000000 
					}
				}
			}
			JOINT LeftArm
			{
				OFFSET 3.362410 1.200890 -0.311210 
				CHANNELS 3 Zrotation Yrotation Xrotation
				JOINT LeftForeArm
				{
					OFFSET 4.983000 -0.000000 -0.000000 
					CHANNELS 3 Zrotation Yrotation Xrotation
					JOINT LeftHand
					{
						OFFSET 3.483560 -0.000000 -0.000000 
						CHANNELS 3 Zrotation Yrotation Xrotation
						JOINT LeftHandIndex1
						{
							OFFSET 0.715260 -0.000000 -0.000000 
							CHANNELS 3 Zrotation Yrotation Xrotation
							End Site
							{
								OFFSET 0.000000 0.000000 0.000000 
							}
						}
					}
				}
			}
			JOINT RightArm
			{
				OFFSET -3.136600 1.374050 -0.404650 
				CHANNELS 3 Zrotation Yrotation Xrotation
				JOINT RightForeArm
				{
					OFFSET -5.241900 -0.000000 -0.000000 
					CHANNELS 3 Zrotation Yrotation Xrotation
					JOINT RightHand
					{
						OFFSET -3.444170 -0.000000 -0.000000 
						CHANNELS 3 Zrotation Yrotation Xrotation
						JOINT RightHandIndex1
						{
							OFFSET -0.622530 -0.000000 -0.000000 
							CHANNELS 3 Zrotation Yrotation Xrotation
							End Site
							{
								OFFSET 0.000000 0.000000 0.000000 
							}
						}
					}
				}
			}
		}
	}
}
MOTION
Frames: 12
Frame Time: 0.041667
6.907893 16.359109 -1.774828 92.056737 -84.365991 -89.664900 -13.602591 3.692097 -31.548079 6.912603 17.115295 51.085172 0.456665 -0.373723 -7.476054 0.133200 -2.352600 -6.481300 6.748677 -2.869017 -23.852481 -8.305051 -17.367298 54.668850 -1.430148 -0.830364 -24.813339 -0.189500 2.803700 -7.732600 -0.860109 2.028214 1.827288 -3.006708 1.214580 -4.546874 -3.673853 15.112183 12.613501 -1.431300 5.167700 15.229500 -71.398671 -15.312644 43.644190 57.079028 -55.278000 -32.218481 0.393290 0.257475 -10.302623 -7.125000 0.000000 0.000000 67.021779 9.263085 22.324592 -66.808335 55.051742 -39.791335 1.203018 -0.026638 -14.526120 7.125000 0.000000 0.000000 
6.921663 16.355249 -1.819684 89.451393 -84.164422 -86.947177 -13.710897 3.594495 -31.672907 6.864996 17.097903 50.935475 0.467353 -0.501095 -7.201679 0.133900 -2.358700 -6.498100 6.570456 -3.050111 -24.183226 -8.392045 -17.419886 55.005232 -1.444770 -0.889344 -24.942916 -0.192900 2.828100 -7.800700 -0.885993 1.996765 1.845623 -3.047774 1.209820 -4.475790 -3.799310 15.292088 12.861405 -1.502000 5.218200 15.424400 -71.359276 -15.443913 43.507813 57.231294 -55.300597 -32.326383 0.438173 0.208709 -10.570405 -7.125000 0.000000 0.000000 67.037449 9.337719 22.306856 -66.834857 55.054625 -39.813845 1.202681 -0.024726 -14.539930 7.125000 0.000000 0.000000 
6.930217 16.350972 -1.864748 88.384227 -83.827265 -85.853880 -13.955062 3.635622 -31.668756 6.798781 17.067724 50.720803 0.472491 -0.577694 -7.002009 0.154300 -2.531000 -6.975500 6.264304 -3.132023 -24.398998 -8.472586 -17.465392 55.319985 -1.445207 -0.979187 -24.953076 -0.221600 3.030500 -8.363600 -0.939918 2.025987 1.895545 -3.098204 1.228773 -4.335910 -3.671873 15.384985 13.123701 -1.424200 5.249700 15.569900 -71.317728 -15.771144 43.452039 57.075508 -55.240553 -32.201661 0.455087 0.197631 -11.224722 -7.125000 0.000000 0.000000 67.071836 9.422305 22.206767 -66.932121 55.066255 -39.901230 1.198699 -0.024283 -14.443490 7.125000 0.000000 0.000000 
6.926148 16.347008 -1.934118 90.087389 -84.115623 -87.678253 -13.389218 4.090472 -31.542906 6.765614 16.962287 50.523979 0.489650 -0.764060 -6.688443 0.172900 -2.679000 -7.386200 7.067383 -2.434611 -24.276957 -8.499013 -17.583277 55.442997 -1.438344 -1.461197 -25.101165 -0.235400 3.122800 -8.620900 -0.882518 2.350111 1.927929 -2.981055 1.373200 -4.322603 -3.821423 15.556338 13.157827 -1.499300 5.315700 15.567000 -71.399341 -15.833951 43.321516 56.991907 -55.223746 -32.164160 0.437238 0.230840 -11.425361 -7.125000 0.000000 0.000000 67.088162 9.328833 22.156564 -67.036314 55.086480 -39.996603 1.194569 -0.022215 -14.455737 7.125000 0.000000 0.000000 
6.918220 16.352954 -1.968647 88.144858 -83.922578 -85.867965 -13.558800 3.988614 -31.275565 6.704213 16.937394 50.326459 0.480091 -0.709338 -6.638856 0.191100 -2.815300 -7.764800 6.875837 -2.868188 -24.063895 -8.528068 -17.561533 55.531550 -1.453589 -1.267003 -25.148509 -0.230600 3.090600 -8.531000 -0.908417 2.286673 1.958719 -3.054755 1.350353 -4.269340 -3.847043 15.787795 13.346204 -1.490100 5.401400 15.687900 -71.521066 -15.740119 43.102079 57.180232 -55.283927 -32.347223 0.418210 0.249743 -11.322340 -7.125000 0.000000 0.000000 67.037361 9.278882 22.217214 -67.269135 55.134273 -40.225424 1.202786 -0.003339 -14.580210 7.125000 0.000000 0.000000 
6.906850 16.363907 -1.997647 86.705781 -83.854881 -84.528734 -13.623971 3.930504 -31.009220 6.657273 16.911521 50.168046 0.473262 -0.661842 -6.639979 0.208000 -2.936500 -8.101900 6.813553 -3.326863 -23.872025 -8.544660 -17.537655 55.571863 -1.469501 -0.991037 -25.188767 -0.212700 2.969100 -8.192700 -0.932829 2.214849 1.996984 -3.210827 1.323774 -4.147191 -3.797345 16.090707 13.635668 -1.427800 5.514500 15.879100 -71.599239 -15.712935 42.877545 57.306242 -55.317764 -32.464851 0.411589 0.246233 -11.303995 -7.125000 0.000000 0.000000 66.978093 9.285524 22.376122 -67.563525 55.193773 -40.499051 1.212790 0.011577 -14.724700 7.125000 0.000000 0.000000 
6.920933 16.362030 -2.049909 82.962007 -83.832134 -80.687065 -13.482850 3.644751 -31.121846 6.612535 16.886741 50.018156 0.480498 -0.763944 -6.344862 0.200900 -2.886200 -7.961900 6.946856 -3.673363 -24.070751 -8.581863 -17.553196 55.701433 -1.484012 -1.017058 -25.312436 -0.196200 2.852100 -7.867100 -0.932578 2.091072 1.970270 -3.244159 1.278597 -4.216716 -3.852695 16.274357 13.783246 -1.480700 5.604500 15.969100 -71.583616 -15.738714 42.687179 57.371511 -55.326833 -32.531274 0.407427 0.245211 -11.413943 -7.125000 0.000000 0.000000 67.017587 9.351533 22.505475 -67.538912 55.191172 -40.450136 1.213447 0.007288 -14.738486 7.125000 0.000000 0.000000 
6.937728 16.359109 -2.104466 79.654571 -83.675341 -77.272987 -13.421616 3.287737 -31.256061 6.556328 16.866169 49.840049 0.468249 -0.745537 -6.003859 0.175100 -2.695100 -7.431100 6.973591 -3.910609 -24.319491 -8.631007 -17.577664 55.880855 -1.500118 -1.089516 -25.461154 -0.189900 2.806400 -7.740300 -0.951145 2.003884 1.940399 -3.290715 1.252825 -4.305669 -3.890315 16.441443 13.908593 -1.512900 5.683300 16.054300 -71.600935 -15.729755 42.588200 57.528661 -55.366929 -32.669846 0.404416 0.249648 -11.506541 -7.125000 0.000000 0.000000 67.100158 9.373850 22.505962 -67.502859 55.185878 -40.408958 1.214316 0.014247 -14.676410 7.125000 0.000000 0.000000 
6.954522 16.359839 -2.157563 76.429246 -83.634428 -73.975437 -13.249465 3.014726 -31.334819 6.493330 16.825842 49.621572 0.448553 -0.675451 -5.659070 0.182600 -2.752400 -7.590300 7.179419 -4.149170 -24.521045 -8.688492 -17.616643 56.087327 -1.512951 -1.152435 -25.589831 -0.174800 2.693100 -7.425500 -0.945586 1.977611 1.908408 -3.364736 1.254551 -4.410021 -3.973251 16.653071 14.083934 -1.554300 5.763300 16.182900 -71.735152 -15.666438 42.554238 57.696505 -55.418108 -32.811475 0.404804 0.255711 -11.481587 -7.125000 0.000000 0.000000 67.121797 9.295901 22.444299 -67.636183 55.207630 -40.542122 1.215413 0.030978 -14.750180 7.125000 0.000000 0.000000 
6.945656 16.362864 -2.217857 78.321507 -83.725386 -75.977514 -13.017397 3.409158 -31.097693 6.430905 16.727144 49.345999 0.446381 -0.696522 -5.499814 0.214500 -2.981900 -8.228400 7.586590 -3.615769 -24.445482 -8.717236 -17.702818 56.215009 -1.516297 -1.329500 -25.722291 -0.135100 2.368700 -6.525800 -0.939631 2.286510 1.959794 -3.298155 1.393593 -4.308175 -3.783867 16.685398 14.151136 -1.428600 5.786600 16.140200 -71.872851 -15.698076 42.570761 57.840239 -55.465200 -32.924913 0.409129 0.256764 -11.373113 -7.125000 0.000000 0.000000 67.145999 9.337321 22.288191 -67.638437 55.205270 -40.558774 1.211279 0.039496 -14.900313 7.125000 0.000000 0.000000 
6.953271 16.365576 -2.259792 76.390401 -83.263515 -73.986109 -13.359019 3.235752 -31.068706 6.330830 16.689443 49.026501 0.452695 -0.765794 -5.292504 0.228800 -3.078600 -8.497600 7.147555 -4.150830 -24.640821 -8.762160 -17.678079 56.371307 -1.530333 -1.170401 -25.747926 -0.125900 2.287700 -6.301400 -0.991303 2.170959 1.967459 -3.336445 1.349211 -4.290968 -3.787808 16.866317 14.301968 -1.423600 5.860900 16.255500 -71.950123 -15.852922 42.522850 57.741260 -55.432534 -32.844327 0.411116 0.257587 -11.439727 -7.125000 0.000000 0.000000 67.209800 9.463988 22.251393 -67.508190 55.180071 -40.431613 1.209457 0.038235 -14.956644 7.125000 0.000000 0.000000 
6.950976 16.370688 -2.304856 74.795986 -83.328128 -72.464956 -13.148526 3.221034 -30.836750 6.248625 16.607378 48.710138 0.460812 -0.849565 -5.091726 0.228100 -3.074000 -8.484700 7.444522 -4.375170 -24.567885 -8.783452 -17.696897 56.439063 -1.537814 -1.265427 -25.842407 -0.142300 2.431500 -6.699900 -0.990400 2.145677 1.983525 -3.462987 1.346506 -4.269641 -3.924106 17.143968 14.421804 -1.502200 5.984400 16.361200 -71.956105 -15.889042 42.418449 57.586674 -55.389266 -32.734292 0.415995 0.257923 -11.550500 -7.125000 0.000000 0.000000 67.337869 9.501166 22.357055 -67.439896 55.174105 -40.330442 1.207562 0.020181 -14.899047 7.125000 0.000000 0.000000 
